<svg width="49" height="48" viewBox="0 0 49 48" fill="none" xmlns="http://www.w3.org/2000/svg">
<path d="M32.491 20.477C31.8484 20.8571 31.316 21.3887 30.9439 22.0218C30.5717 22.655 30.3718 23.3691 30.3629 24.0972C30.3655 24.9167 30.6167 25.7175 31.0854 26.4004C31.5541 27.0833 32.2198 27.6183 33 27.9391C32.6924 28.8984 32.2372 29.8075 31.6496 30.6357C30.8089 31.8055 29.9298 32.9753 28.5922 32.9753C27.2546 32.9753 26.9106 32.2242 25.3691 32.2242C23.8657 32.2242 23.3309 33 22.1082 33C20.8856 33 20.032 31.9164 19.0511 30.5865C17.7552 28.7236 17.043 26.5387 17 24.2942C17 20.5999 19.4842 18.6422 21.9301 18.6422C23.2295 18.6422 24.3122 19.4673 25.1274 19.4673C25.9045 19.4673 27.1148 18.593 28.5925 18.593C29.3523 18.574 30.1053 18.7359 30.7851 19.0644C31.465 19.393 32.0508 19.8781 32.491 20.477ZM25.2296 18.3836C25.1398 18.3834 25.0503 18.3752 24.962 18.3591C24.9371 18.2457 24.9243 18.1301 24.9238 18.0142C24.9663 17.0612 25.349 16.1518 26.0067 15.4407C26.7449 14.6211 27.7796 14.1056 28.8985 14C28.9251 14.1256 28.9379 14.2535 28.9367 14.3817C28.9124 15.3538 28.5437 16.2883 27.8921 17.0291C27.5664 17.4175 27.1625 17.7379 26.7048 17.9708C26.2471 18.2036 25.7452 18.3441 25.2296 18.3836Z" fill="black" fill-opacity="0.8"/>
</svg>
