<svg width="48" height="48" viewBox="0 0 48 48" fill="none" xmlns="http://www.w3.org/2000/svg">
<path d="M31.7293 29.9555L27.5538 25.8734C28.5507 24.5735 29.0175 22.9439 28.86 21.3134C28.7025 19.6828 27.9325 18.1727 26.7053 17.0876C25.4781 16.0025 23.885 15.4232 22.2474 15.4666C20.6099 15.51 19.0497 16.1729 17.8817 17.3214C16.7137 18.47 16.0247 20.0188 15.9538 21.6554C15.8829 23.2919 16.4353 24.8945 17.4996 26.1398C18.564 27.3851 20.0609 28.1804 21.6886 28.3652C23.3163 28.5501 24.9535 28.1108 26.2699 27.1359L30.4704 31.2425C30.5549 31.3251 30.6549 31.3903 30.7646 31.4344C30.8743 31.4784 30.9916 31.5004 31.1098 31.4991C31.228 31.4978 31.3448 31.4732 31.4535 31.4267C31.5622 31.3803 31.6607 31.3129 31.7433 31.2284C31.826 31.1439 31.8912 31.0439 31.9352 30.9342C31.9792 30.8245 32.0012 30.7072 31.9999 30.589C31.9986 30.4708 31.974 30.354 31.9276 30.2453C31.8811 30.1366 31.8138 30.0381 31.7293 29.9555ZM17.1999 21.9538C17.2013 20.9166 17.5102 19.9032 18.0874 19.0415C18.6647 18.1798 19.4844 17.5086 20.443 17.1127C21.4017 16.7168 22.4561 16.6139 23.4732 16.8172C24.4902 17.0204 25.4242 17.5205 26.1571 18.2544C26.89 18.9883 27.3888 19.923 27.5907 20.9403C27.7925 21.9576 27.6882 23.0119 27.2909 23.97C26.8937 24.9281 26.2214 25.7469 25.3589 26.323C24.4965 26.899 23.4826 27.2065 22.4454 27.2065C21.0538 27.204 19.7199 26.6496 18.7365 25.6648C17.7531 24.6801 17.2005 23.3455 17.1999 21.9538Z" fill="black" fill-opacity="0.8"/>
</svg>
