<svg width="48" height="48" viewBox="0 0 48 48" fill="none" xmlns="http://www.w3.org/2000/svg">
<path d="M28.9574 16.9268H27.8221C27.7317 15.9757 27.29 15.0924 26.5832 14.4495C25.8764 13.8067 24.9553 13.4504 23.9999 13.4504C23.0445 13.4504 22.1234 13.8067 21.4165 14.4495C20.7097 15.0924 20.268 15.9757 20.1777 16.9268H19.0424C18.3531 16.9277 17.6923 17.2019 17.2048 17.6893C16.7174 18.1767 16.4432 18.8375 16.4424 19.5268V28.45C16.4432 29.1393 16.7174 29.8002 17.2048 30.2876C17.6923 30.775 18.3531 31.0492 19.0424 31.05H28.9574C29.6467 31.0492 30.3075 30.775 30.7949 30.2876C31.2823 29.8002 31.5565 29.1393 31.5574 28.45V19.5269C31.5566 18.8376 31.2824 18.1768 30.795 17.6893C30.3075 17.2019 29.6467 16.9277 28.9574 16.9268ZM23.9999 14.65C24.6373 14.652 25.2527 14.883 25.734 15.3009C26.2153 15.7187 26.5305 16.2956 26.622 16.9264H21.3778C21.4693 16.2956 21.7844 15.7187 22.2657 15.3009C22.747 14.883 23.3625 14.652 23.9999 14.65ZM30.3573 28.45C30.3569 28.8212 30.2093 29.1771 29.9468 29.4396C29.6844 29.702 29.3285 29.8497 28.9573 29.85H19.0424C18.6712 29.8497 18.3153 29.702 18.0528 29.4396C17.7904 29.1771 17.6428 28.8212 17.6424 28.45V19.5269C17.6428 19.1557 17.7904 18.7999 18.0528 18.5374C18.3153 18.2749 18.6712 18.1273 19.0424 18.1269H28.9574C29.3286 18.1273 29.6845 18.2749 29.9469 18.5374C30.2094 18.7999 30.357 19.1557 30.3574 19.5269L30.3573 28.45Z" fill="black" fill-opacity="0.8"/>
</svg>
